<svg viewBox="0 0 800 1200" xmlns="http://www.w3.org/2000/svg">
  <defs>
    <linearGradient id="bg-aladdin" x1="0" y1="0" x2="1" y2="1">
      <stop offset="0%" stop-color="#b395f9"/>
      <stop offset="55%" stop-color="#6845b8"/>
      <stop offset="100%" stop-color="#3e296e"/>
    </linearGradient>
    <radialGradient id="glow-aladdin" cx="50%" cy="38%" r="55%">
      <stop offset="0%" stop-color="#ffffff" stop-opacity="0.35"/>
      <stop offset="100%" stop-color="#ffffff" stop-opacity="0"/>
    </radialGradient>
  </defs>
  <rect width="800" height="1200" fill="url(#bg-aladdin)"/>
  <rect width="800" height="1200" fill="url(#glow-aladdin)"/>
  <circle cx="620" cy="220" r="220" fill="#ffffff" fill-opacity="0.16"/>
  <path d="M 560 130 a 110 110 0 1 0 0 220 a 90 90 0 1 1 0 -220 Z" fill="#ffffff" fill-opacity="0.85"/>
  <g fill="#ffffff" fill-opacity="0.6">
    <circle cx="180" cy="160" r="4"/><circle cx="260" cy="260" r="3"/>
    <circle cx="140" cy="320" r="3"/><circle cx="330" cy="150" r="3"/>
    <circle cx="700" cy="430" r="3"/><circle cx="100" cy="500" r="4"/>
  </g>
  <g transform="translate(400,760)" fill="#ffffff" fill-opacity="0.92">
    <path d="M -150 40 C -150 -40 -40 -70 60 -40 C 150 -15 170 30 130 55 C 60 95 -110 95 -150 40 Z"/>
    <rect x="120" y="20" width="70" height="18" rx="9"/>
    <path d="M 190 28 q 40 -10 30 -50" fill="none" stroke="#ffffff" stroke-width="10" stroke-linecap="round" stroke-opacity="0.92"/>
  </g>
  <path d="M 400 690 q 18 -50 0 -90 q -18 40 0 90 Z" fill="#ffffff" fill-opacity="0.5"/>

  <rect x="0" y="1050" width="800" height="150" fill="#000000" opacity="0.22"/>
  <text x="400.0" y="1135" text-anchor="middle" font-family="Georgia, 'Times New Roman', serif"
        font-size="40" letter-spacing="3" fill="#ffffff" opacity="0.92">ALADDIN</text>
</svg>