<svg viewBox="0 0 800 1200" xmlns="http://www.w3.org/2000/svg">
  <defs>
    <linearGradient id="bg-beauty-and-beast" x1="0" y1="0" x2="1" y2="1">
      <stop offset="0%" stop-color="#e6a65d"/>
      <stop offset="55%" stop-color="#a25904"/>
      <stop offset="100%" stop-color="#613502"/>
    </linearGradient>
    <radialGradient id="glow-beauty-and-beast" cx="50%" cy="38%" r="55%">
      <stop offset="0%" stop-color="#ffffff" stop-opacity="0.35"/>
      <stop offset="100%" stop-color="#ffffff" stop-opacity="0"/>
    </radialGradient>
  </defs>
  <rect width="800" height="1200" fill="url(#bg-beauty-and-beast)"/>
  <rect width="800" height="1200" fill="url(#glow-beauty-and-beast)"/>
  <g transform="translate(400,560)">
    <path d="M -160 60 A 160 160 0 0 1 160 60" fill="none" stroke="#ffffff" stroke-opacity="0.55" stroke-width="6"/>
    <line x1="-160" y1="60" x2="-160" y2="220" stroke="#ffffff" stroke-opacity="0.55" stroke-width="6"/>
    <line x1="160" y1="60" x2="160" y2="220" stroke="#ffffff" stroke-opacity="0.55" stroke-width="6"/>
    <line x1="-160" y1="220" x2="160" y2="220" stroke="#ffffff" stroke-opacity="0.55" stroke-width="6"/>
    <g fill="#ffffff" fill-opacity="0.92">
      <path d="M 0 0 C -50 -10 -70 -60 -35 -95 C -10 -118 30 -112 42 -78
               C 68 -90 98 -65 86 -30 C 74 5 25 25 0 0 Z"/>
      <rect x="-7" y="0" width="14" height="150" rx="6"/>
      <path d="M -7 90 q -40 10 -55 -20" stroke="#ffffff" stroke-width="8" fill="none" stroke-linecap="round"/>
      <path d="M 7 110 q 40 10 55 -15" stroke="#ffffff" stroke-width="8" fill="none" stroke-linecap="round"/>
    </g>
  </g>

  <rect x="0" y="1050" width="800" height="150" fill="#000000" opacity="0.22"/>
  <text x="400.0" y="1135" text-anchor="middle" font-family="Georgia, 'Times New Roman', serif"
        font-size="40" letter-spacing="3" fill="#ffffff" opacity="0.92">BEAUTY AND THE BEAST</text>
</svg>