<svg viewBox="0 0 800 1200" xmlns="http://www.w3.org/2000/svg">
  <defs>
    <linearGradient id="bg-cats" x1="0" y1="0" x2="1" y2="1">
      <stop offset="0%" stop-color="#63d1ad"/>
      <stop offset="55%" stop-color="#0c8a60"/>
      <stop offset="100%" stop-color="#07533a"/>
    </linearGradient>
    <radialGradient id="glow-cats" cx="50%" cy="38%" r="55%">
      <stop offset="0%" stop-color="#ffffff" stop-opacity="0.35"/>
      <stop offset="100%" stop-color="#ffffff" stop-opacity="0"/>
    </radialGradient>
  </defs>
  <rect width="800" height="1200" fill="url(#bg-cats)"/>
  <rect width="800" height="1200" fill="url(#glow-cats)"/>
  <circle cx="560" cy="260" r="170" fill="#ffffff" fill-opacity="0.55"/>
  <g transform="translate(400,760)" fill="#000000" fill-opacity="0.55">
    <path d="M -120 160 C -130 40 -80 -60 0 -60 C 80 -60 130 40 120 160
             C 120 190 80 200 0 200 C -80 200 -120 190 -120 160 Z"/>
    <path d="M -70 -55 L -95 -150 L -35 -75 Z"/>
    <path d="M 70 -55 L 95 -150 L 35 -75 Z"/>
    <path d="M 110 80 C 170 60 200 -40 160 -90 C 190 -30 175 60 120 110 Z"/>
  </g>
  <g fill="#FDE68A">
    <ellipse cx="370" cy="690" rx="10" ry="14"/>
    <ellipse cx="430" cy="690" rx="10" ry="14"/>
  </g>

  <rect x="0" y="1050" width="800" height="150" fill="#000000" opacity="0.22"/>
  <text x="400.0" y="1135" text-anchor="middle" font-family="Georgia, 'Times New Roman', serif"
        font-size="40" letter-spacing="3" fill="#ffffff" opacity="0.92">CATS</text>
</svg>