<svg viewBox="0 0 800 1200" xmlns="http://www.w3.org/2000/svg">
  <defs>
    <linearGradient id="bg-mamma-mia" x1="0" y1="0" x2="1" y2="1">
      <stop offset="0%" stop-color="#62c4f0"/>
      <stop offset="55%" stop-color="#0a7bae"/>
      <stop offset="100%" stop-color="#064a68"/>
    </linearGradient>
    <radialGradient id="glow-mamma-mia" cx="50%" cy="38%" r="55%">
      <stop offset="0%" stop-color="#ffffff" stop-opacity="0.35"/>
      <stop offset="100%" stop-color="#ffffff" stop-opacity="0"/>
    </radialGradient>
  </defs>
  <rect width="800" height="1200" fill="url(#bg-mamma-mia)"/>
  <rect width="800" height="1200" fill="url(#glow-mamma-mia)"/>
  <circle cx="400" cy="280" r="140" fill="#ffffff" fill-opacity="0.55"/>
  <g stroke="#ffffff" stroke-opacity="0.4" stroke-width="8" stroke-linecap="round">
    <line x1="400" y1="100" x2="400" y2="40"/>
    <line x1="560" y1="160" x2="610" y2="110"/>
    <line x1="240" y1="160" x2="190" y2="110"/>
  </g>
  <g fill="#ffffff" fill-opacity="0.9">
    <rect x="240" y="780" width="320" height="220"/>
    <path d="M 240 780 A 160 160 0 0 1 560 780 Z"/>
    <rect x="370" y="700" width="60" height="90"/>
    <circle cx="400" cy="690" r="22"/>
  </g>
  <g fill="#FCD34D">
    <circle cx="400" cy="1040" r="26"/>
    <circle cx="350" cy="1010" r="18"/>
    <circle cx="450" cy="1010" r="18"/>
    <circle cx="350" cy="1070" r="18"/>
    <circle cx="450" cy="1070" r="18"/>
  </g>

  <rect x="0" y="1050" width="800" height="150" fill="#000000" opacity="0.22"/>
  <text x="400.0" y="1135" text-anchor="middle" font-family="Georgia, 'Times New Roman', serif"
        font-size="40" letter-spacing="3" fill="#ffffff" opacity="0.92">MAMMA MIA!</text>
</svg>