<svg viewBox="0 0 800 1200" xmlns="http://www.w3.org/2000/svg">
  <defs>
    <linearGradient id="bg-mermaid" x1="0" y1="0" x2="1" y2="1">
      <stop offset="0%" stop-color="#5dcfe3"/>
      <stop offset="55%" stop-color="#04889f"/>
      <stop offset="100%" stop-color="#02515f"/>
    </linearGradient>
    <radialGradient id="glow-mermaid" cx="50%" cy="38%" r="55%">
      <stop offset="0%" stop-color="#ffffff" stop-opacity="0.35"/>
      <stop offset="100%" stop-color="#ffffff" stop-opacity="0"/>
    </radialGradient>
  </defs>
  <rect width="800" height="1200" fill="url(#bg-mermaid)"/>
  <rect width="800" height="1200" fill="url(#glow-mermaid)"/>
  <g fill="#ffffff" fill-opacity="0.18">
    <path d="M 0 760 Q 200 700 400 760 T 800 760 L 800 1200 L 0 1200 Z"/>
  </g>
  <g fill="#ffffff" fill-opacity="0.28">
    <path d="M 0 880 Q 200 830 400 880 T 800 880 L 800 1200 L 0 1200 Z"/>
  </g>
  <g fill="#ffffff" fill-opacity="0.85">
    <circle cx="180" cy="300" r="14"/>
    <circle cx="240" cy="220" r="9"/>
    <circle cx="610" cy="380" r="11"/>
    <circle cx="560" cy="260" r="7"/>
    <circle cx="320" cy="150" r="6"/>
  </g>
  <g transform="translate(400,560)" fill="#ffffff" fill-opacity="0.9">
    <path d="M 0 -90 C 60 -90 110 -40 110 20 C 110 70 60 100 0 100 C -60 100 -110 70 -110 20
             C -110 -40 -60 -90 0 -90 Z"/>
    <g stroke="#5EEAD4" stroke-width="6" fill="none" stroke-opacity="0.7">
      <path d="M 0 -80 L 0 90"/>
      <path d="M -55 -55 L -35 85"/>
      <path d="M 55 -55 L 35 85"/>
    </g>
  </g>

  <rect x="0" y="1050" width="800" height="150" fill="#000000" opacity="0.22"/>
  <text x="400.0" y="1135" text-anchor="middle" font-family="Georgia, 'Times New Roman', serif"
        font-size="40" letter-spacing="3" fill="#ffffff" opacity="0.92">THE LITTLE MERMAID</text>
</svg>