<svg viewBox="0 0 800 1200" xmlns="http://www.w3.org/2000/svg">
  <defs>
    <linearGradient id="bg-west-side-story" x1="0" y1="0" x2="1" y2="1">
      <stop offset="0%" stop-color="#f48585"/>
      <stop offset="55%" stop-color="#b33333"/>
      <stop offset="100%" stop-color="#6b1e1e"/>
    </linearGradient>
    <radialGradient id="glow-west-side-story" cx="50%" cy="38%" r="55%">
      <stop offset="0%" stop-color="#ffffff" stop-opacity="0.35"/>
      <stop offset="100%" stop-color="#ffffff" stop-opacity="0"/>
    </radialGradient>
  </defs>
  <rect width="800" height="1200" fill="url(#bg-west-side-story)"/>
  <rect width="800" height="1200" fill="url(#glow-west-side-story)"/>
  <g fill="#000000" fill-opacity="0.3">
    <rect x="60" y="700" width="90" height="350"/>
    <rect x="170" y="600" width="70" height="450"/>
    <rect x="260" y="760" width="100" height="290"/>
    <rect x="380" y="540" width="80" height="510"/>
    <rect x="480" y="660" width="90" height="390"/>
    <rect x="590" y="600" width="70" height="450"/>
    <rect x="680" y="740" width="80" height="310"/>
  </g>
  <g stroke="#ffffff" stroke-opacity="0.45" stroke-width="4">
    <line x1="395" y1="540" x2="395" y2="600"/>
    <line x1="380" y1="570" x2="460" y2="570"/>
  </g>
  <path d="M 400 220 l 30 70 76 8 -58 52 17 76 -65 -40 -65 40 17 -76 -58 -52 76 -8 Z"
        fill="#ffffff" fill-opacity="0.85"/>

  <rect x="0" y="1050" width="800" height="150" fill="#000000" opacity="0.22"/>
  <text x="400.0" y="1135" text-anchor="middle" font-family="Georgia, 'Times New Roman', serif"
        font-size="40" letter-spacing="3" fill="#ffffff" opacity="0.92">WEST SIDE STORY</text>
</svg>